<svg id="Layer_1" data-name="Layer 1" xmlns="http://www.w3.org/2000/svg" viewBox="0 0 130 24"><defs><style>.cls-1{fill:#a7a7a7;}.cls-2{fill:#333;}</style></defs><title>로딩</title><path class="cls-1" d="M9.09,17.1c-2.57-.32-3.93-2.73-2.53-5A7.72,7.72,0,0,0,7.69,7.79c0-2.7,2.51-4,4.94-2.82s3.73,4.62,2.91,7.37C14.65,15.32,11.78,17.44,9.09,17.1Z"/><path class="cls-1" d="M17.81,10a2.52,2.52,0,0,1,3-1.86A2.45,2.45,0,0,1,23,11a2.44,2.44,0,0,1-2.94,1.79A2.45,2.45,0,0,1,17.81,10Z"/><path class="cls-1" d="M18.7,18.64a2.68,2.68,0,0,1-2.42-2.81A2.26,2.26,0,0,1,19,14a2.66,2.66,0,0,1,2.48,2.89A2.27,2.27,0,0,1,18.7,18.64Z"/><path class="cls-1" d="M13.75,21.66A2.52,2.52,0,0,1,11.56,19,2.06,2.06,0,0,1,14,17.43a2.4,2.4,0,0,1,2.16,2.66A2,2,0,0,1,13.75,21.66Z"/><path class="cls-1" d="M15.4,4.9a2.3,2.3,0,0,1,2.72-1.83,2.26,2.26,0,0,1,2.06,2.4,2.33,2.33,0,0,1-2.67,1.74A2.12,2.12,0,0,1,15.4,4.9Z"/><path class="cls-1" d="M46,19.17a3.19,3.19,0,0,1-4.68-3.06,7.72,7.72,0,0,0-1.18-4.31C38.8,9.46,40.3,7.08,43,6.89S48.54,9,49.2,11.82C49.92,14.84,48.49,18.11,46,19.17Z"/><path class="cls-1" d="M50,8.7a2.5,2.5,0,0,1,1.7-3.13A2.43,2.43,0,0,1,55,6.88a2.44,2.44,0,0,1-1.64,3A2.46,2.46,0,0,1,50,8.7Z"/><path class="cls-1" d="M55.09,15.69a2.67,2.67,0,0,1-3.5-1.22,2.25,2.25,0,0,1,1.4-3,2.63,2.63,0,0,1,3.58,1.27A2.25,2.25,0,0,1,55.09,15.69Z"/><path class="cls-1" d="M52.31,20.78a2.5,2.5,0,0,1-3.23-1.22A2.06,2.06,0,0,1,50.44,17a2.41,2.41,0,0,1,3.2,1.23A2,2,0,0,1,52.31,20.78Z"/><path class="cls-1" d="M45.36,5.45A2.3,2.3,0,0,1,46.8,2.5a2.27,2.27,0,0,1,3,1,2.34,2.34,0,0,1-1.45,2.84A2.11,2.11,0,0,1,45.36,5.45Z"/><path class="cls-1" d="M76.37,17.1c-2.57-.32-3.93-2.73-2.53-5A7.72,7.72,0,0,0,75,7.79c0-2.7,2.51-4,4.94-2.82s3.73,4.62,2.91,7.37C81.94,15.32,79.06,17.44,76.37,17.1Z"/><path class="cls-1" d="M85.09,10a2.52,2.52,0,0,1,3-1.86A2.45,2.45,0,0,1,90.32,11,2.69,2.69,0,0,1,85.09,10Z"/><path class="cls-1" d="M86,18.64a2.68,2.68,0,0,1-2.42-2.81A2.27,2.27,0,0,1,86.26,14a2.66,2.66,0,0,1,2.47,2.89A2.26,2.26,0,0,1,86,18.64Z"/><path class="cls-1" d="M81,21.66A2.52,2.52,0,0,1,78.84,19a2.06,2.06,0,0,1,2.47-1.55,2.4,2.4,0,0,1,2.16,2.66A2,2,0,0,1,81,21.66Z"/><path class="cls-1" d="M82.68,4.9A2.3,2.3,0,0,1,85.4,3.07a2.26,2.26,0,0,1,2.06,2.4,2.33,2.33,0,0,1-2.67,1.74A2.12,2.12,0,0,1,82.68,4.9Z"/><path class="cls-2" d="M113.27,19.17a3.19,3.19,0,0,1-4.68-3.06,7.72,7.72,0,0,0-1.18-4.31c-1.33-2.34.17-4.72,2.87-4.91s5.54,2.14,6.2,4.93C117.2,14.84,115.77,18.11,113.27,19.17Z"/><path class="cls-2" d="M117.3,8.7A2.5,2.5,0,0,1,119,5.57a2.43,2.43,0,0,1,3.28,1.31,2.44,2.44,0,0,1-1.64,3A2.46,2.46,0,0,1,117.3,8.7Z"/><path class="cls-2" d="M122.37,15.69a2.67,2.67,0,0,1-3.5-1.22,2.26,2.26,0,0,1,1.4-3,2.63,2.63,0,0,1,3.58,1.27A2.25,2.25,0,0,1,122.37,15.69Z"/><path class="cls-2" d="M119.59,20.78a2.5,2.5,0,0,1-3.23-1.22A2.06,2.06,0,0,1,117.72,17a2.41,2.41,0,0,1,3.2,1.23A2,2,0,0,1,119.59,20.78Z"/><path class="cls-2" d="M112.65,5.45a2.3,2.3,0,0,1,1.43-2.95,2.27,2.27,0,0,1,3,1,2.34,2.34,0,0,1-1.44,2.84A2.11,2.11,0,0,1,112.65,5.45Z"/></svg>